<svg width="64" height="64" viewBox="0 0 64 64" fill="none" xmlns="http://www.w3.org/2000/svg">
<path d="M47.36 13.9733H16.64C15.1467 13.9733 13.9733 15.1466 13.9733 16.5333V47.36C13.9733 48.7466 15.1467 49.92 16.64 49.92H32V34.9866H28.6933V30.1866H32V28.8V27.3066V27.0933C32 25.7066 32 23.4666 33.0667 22.1866C34.1333 20.8 35.6267 19.84 38.1867 19.84C42.3467 19.84 44.0533 20.48 44.0533 20.48L43.2 25.3866C43.2 25.3866 41.8133 24.96 40.5333 24.96C39.2533 24.96 38.08 25.3866 38.08 26.6666V27.2V28.8V30.2933H43.3067L42.9867 35.0933H38.08V50.1333H47.2533C48.7467 50.1333 49.92 48.96 49.92 47.5733V16.5333C50.0267 15.1466 48.8533 13.9733 47.36 13.9733Z" fill="#4267B2"/>
</svg>
