<svg width="64" height="64" viewBox="0 0 64 64" fill="none" xmlns="http://www.w3.org/2000/svg">
<path d="M32 12.8203C26.7915 12.8203 26.1376 12.8427 24.0917 12.9355C22.0501 13.0283 20.656 13.3525 19.4368 13.8272C18.1749 14.3168 17.1051 14.9717 16.0395 16.0384C14.9728 17.1051 14.3168 18.1739 13.8261 19.4368C13.3525 20.6571 13.0283 22.0501 12.9355 24.0917C12.8427 26.1376 12.8203 26.7904 12.8203 31.9989C12.8203 37.2085 12.8427 37.8613 12.9355 39.9061C13.0283 41.9488 13.3536 43.3429 13.8261 44.5621C14.3168 45.824 14.9728 46.8928 16.0395 47.9605C17.1061 49.0261 18.1749 49.6821 19.4368 50.1728C20.656 50.6453 22.0501 50.9696 24.0917 51.0645C26.1365 51.1584 26.7915 51.1787 32 51.1787C37.2085 51.1787 37.8624 51.1563 39.9083 51.0645C41.9499 50.9696 43.344 50.6453 44.5621 50.1728C45.8251 49.6821 46.8939 49.0261 47.9627 47.9605C49.0272 46.8928 49.6832 45.824 50.1728 44.5621C50.6475 43.3408 50.9707 41.9488 51.0645 39.9061C51.1584 37.8613 51.1787 37.2085 51.1787 31.9989C51.1787 26.7904 51.1563 26.1376 51.0645 24.0917C50.9707 22.0501 50.6475 20.656 50.1728 19.4368C49.6832 18.1739 49.0272 17.1051 47.9627 16.0384C46.8939 14.9717 45.8251 14.3168 44.5621 13.8272C43.3419 13.3525 41.9499 13.0283 39.9083 12.9355C37.8624 12.8416 37.2085 12.8203 32 12.8203ZM32 16.2752C37.1211 16.2752 37.7269 16.2955 39.7504 16.3872C41.6213 16.4725 42.6357 16.7851 43.3131 17.0475C44.2091 17.3952 44.8469 17.8123 45.5168 18.4821C46.1899 19.1531 46.6048 19.7931 46.9525 20.688C47.2149 21.3632 47.5275 22.3787 47.6128 24.2485C47.7045 26.2709 47.7248 26.8779 47.7248 31.9989C47.7248 37.12 47.7035 37.7269 47.6128 39.7504C47.5275 41.6213 47.2149 42.6357 46.9525 43.3109C46.6048 44.2091 46.1899 44.8448 45.5168 45.5168C44.8459 46.1888 44.208 46.6027 43.3131 46.9525C42.6357 47.2149 41.6213 47.5275 39.7504 47.6117C37.728 47.7045 37.1211 47.7237 32 47.7237C26.8789 47.7237 26.2731 47.7035 24.2496 47.6117C22.3797 47.5275 21.3643 47.2149 20.688 46.9525C19.7931 46.6027 19.1541 46.1888 18.4821 45.5168C17.8112 44.8448 17.3952 44.2059 17.0485 43.3109C16.7851 42.6357 16.4725 41.6213 16.3872 39.7504C16.2955 37.728 16.2752 37.12 16.2752 31.9989C16.2752 26.8779 16.2955 26.272 16.3872 24.2485C16.4725 22.3787 16.7851 21.3632 17.0485 20.688C17.3963 19.792 17.8112 19.1531 18.4821 18.4821C19.1541 17.8123 19.7931 17.3952 20.688 17.0475C21.3643 16.7851 22.3787 16.4725 24.2496 16.3872C26.2731 16.2944 26.8789 16.2752 32 16.2752Z" fill="url(#paint0_linear_4_14)"/>
<path d="M32 38.3915C28.4682 38.3915 25.6064 35.5285 25.6064 31.9989C25.6064 28.4683 28.4682 25.6064 32 25.6064C35.5317 25.6064 38.3914 28.4693 38.3914 31.9989C38.3914 35.5317 35.5317 38.3915 32 38.3915ZM32 22.1515C26.56 22.1515 22.1514 26.5611 22.1514 31.9989C22.1514 37.44 26.56 41.8475 32 41.8475C37.44 41.8475 41.8496 37.4368 41.8496 31.9989C41.8496 26.56 37.44 22.1515 32 22.1515Z" fill="url(#paint1_linear_4_14)"/>
<path d="M44.5397 21.761C44.5397 23.0314 43.5082 24.0618 42.2378 24.0618C40.9706 24.0618 39.9381 23.0314 39.9381 21.761C39.9381 20.4896 40.9706 19.4592 42.2378 19.4592C43.5082 19.4592 44.5397 20.4896 44.5397 21.761Z" fill="url(#paint2_linear_4_14)"/>
<defs>
<linearGradient id="paint0_linear_4_14" x1="18.1568" y1="45.5941" x2="46.7716" y2="17.4948" gradientUnits="userSpaceOnUse">
<stop stop-color="#FEC61E"/>
<stop offset="0.5028" stop-color="#F50000"/>
<stop offset="1" stop-color="#C2009A"/>
</linearGradient>
<linearGradient id="paint1_linear_4_14" x1="18.1562" y1="45.5937" x2="46.7712" y2="17.4944" gradientUnits="userSpaceOnUse">
<stop stop-color="#FEC61E"/>
<stop offset="0.5028" stop-color="#F50000"/>
<stop offset="1" stop-color="#C2009A"/>
</linearGradient>
<linearGradient id="paint2_linear_4_14" x1="18.0641" y1="45.4998" x2="46.679" y2="17.4005" gradientUnits="userSpaceOnUse">
<stop stop-color="#FEC61E"/>
<stop offset="0.5028" stop-color="#F50000"/>
<stop offset="1" stop-color="#C2009A"/>
</linearGradient>
</defs>
</svg>
